<?xml version="1.0" standalone="no"?><!-- Generator: Gravit.io --><svg xmlns="http://www.w3.org/2000/svg" xmlns:xlink="http://www.w3.org/1999/xlink" style="isolation:isolate" viewBox="0 0 800 1000" width="800" height="1000"><defs><clipPath id="_clipPath_P58XCQMvpDgjinVOFEWm2EMjlZKsO4z3"><rect width="800" height="1000"/></clipPath></defs><g clip-path="url(#_clipPath_P58XCQMvpDgjinVOFEWm2EMjlZKsO4z3)"><linearGradient id="_lgradient_4" x1="0" y1="0.5" x2="1.721034384140166" y2="0.4922144073299388" gradientTransform="matrix(825,0,0,-542,-25,677)" gradientUnits="userSpaceOnUse"><stop offset="0%" stop-opacity="1" style="stop-color:rgb(153,153,204)"/><stop offset="4.400927752877291%" stop-opacity="0.9999999999999999" style="stop-color:rgb(153,156,201)"/><stop offset="9.130434782608695%" stop-opacity="1" style="stop-color:rgb(153,187,170)"/><stop offset="66.08695652173913%" stop-opacity="1" style="stop-color:rgb(153,204,153)"/><stop offset="96.52173913043478%" stop-opacity="1" style="stop-color:rgb(161,215,161)"/></linearGradient><path d=" M -23.529 135 C -22.429 136.581 -28.073 475.596 -22.499 480.027 C -11.664 488.642 10.627 500.629 23.313 508.157 C 110.671 560.002 221.755 565.678 302.603 530.081 Q 592.838 402.294 800 677 L 798.974 279.139" fill="url(#_lgradient_4)"/><linearGradient id="_lgradient_5" x1="0" y1="0.5" x2="1.721034384140166" y2="0.4922144073299388" gradientTransform="matrix(800,0,0,-542,0,665.925)" gradientUnits="userSpaceOnUse"><stop offset="0%" stop-opacity="1" style="stop-color:rgb(153,153,204)"/><stop offset="4.400927752877291%" stop-opacity="0.9999999999999999" style="stop-color:rgb(153,156,201)"/><stop offset="48.41948153809669%" stop-opacity="1" style="stop-color:rgb(153,187,170)"/><stop offset="66.08695652173913%" stop-opacity="1" style="stop-color:rgb(153,204,153)"/></linearGradient><path d=" M 1.427 123.925 C 2.494 125.506 -2.98 464.521 2.425 468.952 C 12.932 477.567 34.547 489.554 46.849 497.082 C 131.559 548.927 239.277 554.603 317.676 519.006 Q 599.116 391.219 800 665.925 L 799.006 268.064" fill="url(#_lgradient_5)"/><linearGradient id="_lgradient_6" x1="0" y1="0.5" x2="1" y2="0.5" gradientTransform="matrix(888.683,0,0,533,-20.683,-47)" gradientUnits="userSpaceOnUse"><stop offset="0%" stop-opacity="1" style="stop-color:rgb(153,153,204)"/><stop offset="66.08695652173913%" stop-opacity="1" style="stop-color:rgb(153,204,153)"/></linearGradient><path d=" M 2.444 486 C 3.52 484.445 -25.448 161.877 -20 157.519 C -9.408 149.048 -9.956 104.883 2.444 97.479 C 87.837 46.495 302.765 62.473 381.794 97.479 Q 665.499 223.145 868 -47 L 866.998 344.254" fill="url(#_lgradient_6)"/><linearGradient id="_lgradient_7" x1="0.4922095213483404" y1="0.5133631150343325" x2="0.9885367274957348" y2="0.4998712146785971" gradientTransform="matrix(812.379,0,0,538,-12.379,0)" gradientUnits="userSpaceOnUse"><stop offset="2.608695652173913%" stop-opacity="1" style="stop-color:rgb(148,148,210)"/><stop offset="49.35177746443895%" stop-opacity="1" style="stop-color:rgb(148,151,207)"/><stop offset="98.26086956521738%" stop-opacity="1" style="stop-color:rgb(153,203,154)"/><stop offset="98.26086956521738%" stop-opacity="1" style="stop-color:rgb(153,204,153)"/><stop offset="98.26086956521738%" stop-opacity="1" style="stop-color:rgb(153,203,154)"/><stop offset="98.26086956521738%" stop-opacity="1" style="stop-color:rgb(153,204,153)"/><stop offset="98.26086956521738%" stop-opacity="1" style="stop-color:rgb(153,203,154)"/><stop offset="99.1304347826087%" stop-opacity="1" style="stop-color:rgb(153,203,154)"/></linearGradient><path d=" M -5 538 C -3.925 536.431 -16.448 161.918 -11 157.519 C -0.408 148.968 -16.893 168.928 -8 157.519 C 114 1 234.765 110.5 313.794 145.834 Q 597.499 272.679 800 0 L 798.998 394.925" fill="url(#_lgradient_7)"/><linearGradient id="_lgradient_8" x1="0" y1="0.5" x2="1.3841955741626795" y2="0.462388331196381" gradientTransform="matrix(800,0,0,459,0,41)" gradientUnits="userSpaceOnUse"><stop offset="0%" stop-opacity="1" style="stop-color:rgb(148,148,210)"/><stop offset="6.521739130434782%" stop-opacity="1" style="stop-color:rgb(149,156,201)"/><stop offset="34.48607671162462%" stop-opacity="1" style="stop-color:rgb(153,182,175)"/><stop offset="48.15431069815519%" stop-opacity="1" style="stop-color:rgb(153,194,163)"/><stop offset="56.62906334208604%" stop-opacity="1" style="stop-color:rgb(153,196,161)"/><stop offset="59.571351665234495%" stop-opacity="1" style="stop-color:rgb(153,199,158)"/><stop offset="66.08695652173913%" stop-opacity="1" style="stop-color:rgb(153,204,153)"/></linearGradient><path d=" M 1.438 500 C 2.514 498.431 -3.004 161.918 2.444 157.519 C 13.036 148.968 34.825 137.069 47.226 129.596 C 132.618 78.134 305.97 72.5 385 107.834 Q 668.705 234.679 800 41 L 798.998 359" fill="url(#_lgradient_8)"/></g></svg>